<svg id="egAdtwbeCsY1" xmlns="http://www.w3.org/2000/svg" xmlns:xlink="http://www.w3.org/1999/xlink" viewBox="0 0 300 300" shape-rendering="geometricPrecision" text-rendering="geometricPrecision"><defs><linearGradient id="egAdtwbeCsY2-fill" x1="0.946202" y1="1" x2="0.174077" y2="0" spreadMethod="pad" gradientUnits="objectBoundingBox" gradientTransform="translate(0 0)"><stop id="egAdtwbeCsY2-fill-0" offset="0%" stop-color="#100943"/><stop id="egAdtwbeCsY2-fill-1" offset="100%" stop-color="#e771f6"/></linearGradient></defs><path d="M-104.378317,0c0-57.646553,46.731764-104.378317,104.378317-104.378317s104.378317,46.731764,104.378317,104.378317-46.731764,104.378317-104.378317,104.378317-104.378317-46.731764-104.378317-104.378317Z" transform="matrix(1.180665 0 0 1.180665 150 149.982705)" fill="url(#egAdtwbeCsY2-fill)" stroke-width="0"/><path d="M98.870587,133.380169c0-40,13.592535-58.285165,19.417907-58.285165s19.417908,18.285165,19.417908,58.285165c0,0,38.835815,48.013542,38.835815,68.013542c0,0-38.835815-9.728378-38.835815-9.728378s-9.708954,9.728378-9.708954,9.728378-19.417908,0-19.417908,0-9.708953-9.728378-9.708953-9.728378q-38.835816,9.728378-38.835816,9.728378c0-20,38.835816-68.013542,38.835816-68.013542Z" transform="matrix(1.029977 0 0 1.029421 28.165572 2.695657)" fill="#fff" stroke-width="0"/></svg>
